# xmcd
#
# Track frame offsets:
#	150
#	18815
#	29288
#	43095
#	60637
#	80707
#	97114
#	119070
#	137471
#	151207
#	162758
#	173001
#	185731
#	201087
#	217103
#	227799
#	242591
#	252738
#
# Disc length: 3637 seconds
#
# Revision: 1
# Processed by: cddbd v1.4PL0 Copyright (c) Steve Scherf et al.
# Submitted via: audiograbber 1.82.01
#
DISCID=fd0e3312
DTITLE=Paul Lamb and The Blues Burglars - Whoopin`
DYEAR=1999
DGENRE=Blues
TTITLE0=Firing Line
TTITLE1=You Sure Make Lovin` Hard
TTITLE2=Rainin` In My Heart
TTITLE3=Tired Of Trying
TTITLE4=The Lamb
TTITLE5=Hey Hey Mama
TTITLE6=Sugar Mama
TTITLE7=Shake Your Money Maker
TTITLE8=Built For Comfort
TTITLE9=El Capo
TTITLE10=Don`t Count Me Out
TTITLE11=How Many More Years
TTITLE12=Feel So Good
TTITLE13=Late One Evening
TTITLE14=Spaced Out
TTITLE15=Don`t Start Me Talking
TTITLE16=Whoopin`
TTITLE17=Mojo Working
EXTD=
EXTT0=
EXTT1=
EXTT2=
EXTT3=
EXTT4=
EXTT5=
EXTT6=
EXTT7=
EXTT8=
EXTT9=
EXTT10=
EXTT11=
EXTT12=
EXTT13=
EXTT14=
EXTT15=
EXTT16=
EXTT17=
PLAYORDER=
